<?xml version="1.0" standalone="no"?>
<!DOCTYPE svg PUBLIC "-//W3C//DTD SVG 20010904//EN"
 "http://www.w3.org/TR/2001/REC-SVG-20010904/DTD/svg10.dtd">
<svg version="1.0" xmlns="http://www.w3.org/2000/svg"
 width="400.000000pt" height="400.000000pt" viewBox="0 0 400.000000 400.000000"
 preserveAspectRatio="xMidYMid meet">
<metadata>
Created by potrace 1.11, written by Peter Selinger 2001-2013
</metadata>
<g transform="translate(0.000000,400.000000) scale(0.100000,-0.100000)"
fill="#000000" stroke="none">
<path d="M1885 3325 c-274 -50 -488 -186 -630 -400 -99 -151 -139 -279 -139
-455 -1 -63 2 -131 6 -150 36 -176 161 -336 328 -417 105 -51 196 -79 320 -99
95 -15 340 -26 340 -15 0 3 -37 13 -83 22 -195 39 -398 183 -485 346 -121 227
-75 495 113 672 200 187 486 197 699 24 108 -87 172 -212 195 -378 13 -91 43
-160 84 -189 26 -19 43 -21 190 -21 125 -1 176 -5 222 -19 390 -116 512 -583
226 -866 -96 -96 -211 -147 -341 -153 -48 -2 -49 -2 -71 -52 -33 -76 -101
-173 -168 -243 -34 -35 -61 -65 -61 -66 0 -6 355 2 390 8 76 13 97 19 154 37
269 86 488 298 577 558 42 122 57 296 34 414 -19 98 -20 104 -51 187 -84 225
-302 430 -539 506 -64 21 -238 57 -241 51 -28 -78 -135 -238 -118 -178 19 72
25 215 11 301 -22 133 -162 320 -322 430 -93 64 -232 120 -360 145 -62 12
-212 12 -280 0z"/>
<path d="M975 3123 c-189 -27 -363 -112 -503 -247 -204 -194 -299 -468 -256
-738 16 -107 19 -119 44 -184 110 -295 352 -500 660 -559 47 -9 94 -18 105
-20 16 -3 25 7 47 53 26 56 86 147 93 140 1 -1 -3 -38 -10 -80 -25 -158 1
-302 73 -414 187 -289 550 -454 877 -399 101 17 113 20 166 38 195 66 367 196
475 358 101 153 144 300 139 484 -1 66 -5 130 -8 141 -21 83 -57 160 -103 221
-29 38 -115 123 -125 123 -4 0 -14 6 -21 14 -19 18 -155 83 -214 101 -128 40
-243 56 -416 59 -127 3 -153 -6 -53 -18 127 -15 283 -95 393 -200 132 -126
195 -273 187 -436 -4 -101 -7 -111 -36 -181 -49 -117 -125 -208 -229 -274 -90
-57 -165 -79 -270 -79 -266 2 -477 178 -525 439 -30 159 -36 179 -61 212 -34
45 -74 63 -136 62 -212 -4 -257 -2 -309 15 -168 53 -282 150 -344 291 -32 70
-40 117 -38 217 4 278 214 494 498 511 39 3 41 5 80 78 58 108 90 151 168 230
26 26 47 50 47 52 0 9 -318 1 -395 -10z"/>
</g>
</svg>
